{"title":"A Silent Melody - Short Film 1080p x264 MP3 [TMB] - Hindi","uid":10084076,"size":167164776,"categoryP":"video","categoryS":"other","magnet":"?xt=urn:btih:6b13dff0dc125475a663798584489dab90325ed2&amp;dn=A+Silent+Melody+-+Short+Film+1080p+x264+MP3+%5BTMB%5D+-+Hindi&amp;tr=udp%3A%2F%2Ftracker.openbittorrent.com%3A80&amp;tr=udp%3A%2F%2Fopen.demonii.com%3A1337&amp;tr=udp%3A%2F%2Ftracker.coppersurfer.tk%3A6969&amp;tr=udp%3A%2F%2Fexodus.desync.com%3A6969","seeders":0,"leechers":1,"uploader":"SJonam","files":2,"time":1399065051,"description":"The Mumbai Boys [TMB] Release...\n\nA Silent Melody - Short Film 1080p x264 MP3 [TMB]\n\n &lt;a href=&quot;\nhttp://s28.postimg.org/7vy2c287h/vlcsnap_2014_04_13_15h17m39s143.png&quot; rel=&quot;nofollow&quot; target=&quot;_NEW&quot;&gt;\nhttp://s28.postimg.org/7vy2c287h/vlcsnap_2014_04_13_15h17m39s143.png&lt;/a&gt; &lt;a href=&quot;\nhttp://s28.postimg.org/lf5pqa7f1/vlcsnap_2014_04_13_15h17m50s254.png&quot; rel=&quot;nofollow&quot; target=&quot;_NEW&quot;&gt;\nhttp://s28.postimg.org/lf5pqa7f1/vlcsnap_2014_04_13_15h17m50s254.png&lt;/a&gt; &lt;a href=&quot;\nhttp://s28.postimg.org/61l7ubl71/vlcsnap_2014_04_13_15h17m57s68.png&quot; rel=&quot;nofollow&quot; target=&quot;_NEW&quot;&gt;\nhttp://s28.postimg.org/61l7ubl71/vlcsnap_2014_04_13_15h17m57s68.png&lt;/a&gt; &lt;a href=&quot;\nhttp://s28.postimg.org/62lyw9899/vlcsnap_2014_04_13_15h18m15s0.png&quot; rel=&quot;nofollow&quot; target=&quot;_NEW&quot;&gt;\nhttp://s28.postimg.org/62lyw9899/vlcsnap_2014_04_13_15h18m15s0.png&lt;/a&gt; &lt;a href=&quot;\nhttp://s28.postimg.org/fane4fu31/vlcsnap_2014_04_13_15h18m35s196.png&quot; rel=&quot;nofollow&quot; target=&quot;_NEW&quot;&gt;\nhttp://s28.postimg.org/fane4fu31/vlcsnap_2014_04_13_15h18m35s196.png&lt;/a&gt; &lt;a href=&quot;\nhttp://s28.postimg.org/sfyawsykt/vlcsnap_2014_04_13_15h18m41s3.png&quot; rel=&quot;nofollow&quot; target=&quot;_NEW&quot;&gt;\nhttp://s28.postimg.org/sfyawsykt/vlcsnap_2014_04_13_15h18m41s3.png&lt;/a&gt; &lt;a href=&quot;\nhttp://s28.postimg.org/y830hoxsd/vlcsnap_2014_04_13_15h18m52s110.png&quot; rel=&quot;nofollow&quot; target=&quot;_NEW&quot;&gt;\nhttp://s28.postimg.org/y830hoxsd/vlcsnap_2014_04_13_15h18m52s110.png&lt;/a&gt;\n\n\nMedia Info - \nGeneral\nComplete name                  : A Silent Melody - Short Film 1080p x264 MP3 [TMB].avi\nFormat                         : AVI\nFormat/Info                    : Audio Video Interleave\nFile size                      : 143 MiB\nDuration                       : 10mn 19s\nOverall bit rate               : 1 941 Kbps\nWriting application            : Lavf54.63.104\n\nVideo\nFormat                         : AVC\nFormat/Info                    : Advanced Video Codec\nFormat profile                 : &lt;a class=&quot;__cf_email__&quot; href=&quot;/cdn-cgi/l/email-protection&quot; data-cfemail=&quot;fbb69a9295bbb7cfd5cb&quot;&gt;[email&amp;#160;protected]&lt;/a&gt;&lt;script cf-hash='f9e31' type=&quot;text/javascript&quot;&gt;\n/* &lt;![CDATA[ */!function(){try{var t=&quot;currentScript&quot;in document?document.currentScript:function(){for(var t=document.getElementsByTagName(&quot;script&quot;),e=t.length;e--;)if(t[e].getAttribute(&quot;cf-hash&quot;))return t[e]}();if(t&amp;&amp;t.previousSibling){var e,r,n,i,c=t.previousSibling,a=c.getAttribute(&quot;data-cfemail&quot;);if(a){for(e=&quot;&quot;,r=parseInt(a.substr(0,2),16),n=2;a.length-n;n+=2)i=parseInt(a.substr(n,2),16)^r,e+=String.fromCharCode(i);e=document.createTextNode(e),c.parentNode.replaceChild(e,c)}}}catch(u){}}();/* ]]&gt; */&lt;/script&gt;\nFormat settings, CABAC         : Yes\nFormat settings, ReFrames      : 1 frame\nCodec ID                       : H264\nDuration                       : 10mn 19s\nBit rate                       : 1 740 Kbps\nWidth                          : 1 920 pixels\nHeight                         : 816 pixels\nDisplay aspect ratio           : 2.35:1\nFrame rate mode                : Variable\nFrame rate                     : 23.976 fps\nColor space                    : YUV\nChroma subsampling             : 4:2:0\nBit depth                      : 8 bits\nScan type                      : Progressive\nBits/(Pixel*Frame)             : 0.046\nStream size                    : 124 MiB (86%)\nWriting library                : x264 core 129\n\nAudio\nFormat                         : MPEG Audio\nFormat version                 : Version 1\nFormat profile                 : Layer 3\nMode                           : Joint stereo\nMode extension                 : MS Stereo\nCodec ID                       : 55\nCodec ID/Hint                  : MP3\nDuration                       : 10mn 19s\nBit rate mode                  : Constant\nBit rate                       : 256 Kbps\nChannel(s)                     : 2 channels\nSampling rate                  : 44.1 KHz\nCompression mode               : Lossy\nStream size                    : 18.9 MiB (13%)\nAlignment                      : Aligned on interleaves\nInterleave, duration           : 26 ms (0.63 video frame)\nWriting library                : LAME3.99.5\n\n\nSample in Torrent...\n\nSource : Friend... He liked it n gave it to me... I liked it that's why sharing it... ;)\n\nRipper : Manojvb\n\nSeeding will be very slow for first couple of hours then 24x7...\n\nSpecial Thanks to Phantom...\n\n\nEnjoy!\n","torrent":{"xt":"urn:btih:6b13dff0dc125475a663798584489dab90325ed2","amp;dn":"A+Silent+Melody+-+Short+Film+1080p+x264+MP3+%5BTMB%5D+-+Hindi","amp;tr":["udp%3A%2F%2Ftracker.openbittorrent.com%3A80","udp%3A%2F%2Fopen.demonii.com%3A1337","udp%3A%2F%2Ftracker.coppersurfer.tk%3A6969","udp%3A%2F%2Fexodus.desync.com%3A6969"],"infoHash":"6b13dff0dc125475a663798584489dab90325ed2","infoHashBuffer":{"type":"Buffer","data":[107,19,223,240,220,18,84,117,166,99,121,133,132,72,157,171,144,50,94,210]},"announce":[],"urlList":[]}}